<svg xmlns="http://www.w3.org/2000/svg" version="1.1" xmlns:xlink="http://www.w3.org/1999/xlink" xmlns:svgjs="http://svgjs.com/svgjs" width="512" height="512" x="0" y="0" viewBox="0 0 512 512" style="enable-background:new 0 0 512 512" xml:space="preserve"><g><g data-name="10 Poker"><path fill="#4a5058" d="M184.73 223 173 211.26l-57.66-57.48a14.81 14.81 0 0 0-20.91 0l-57.52 57.34-11.82 11.78a48.07 48.07 0 0 0 59.72 74.59l-6.54 35.24a11.49 11.49 0 0 0 11.31 13.59h30.64a11.5 11.5 0 0 0 11.31-13.59L125 297.29a48.19 48.19 0 0 0 59.78-6.56 47.81 47.81 0 0 0-.05-67.73z" data-original="#4a5058"/><path fill="#f17b89" d="M176.18 33.17a48.28 48.28 0 0 1 68.12 0l11.81 11.77 11.74-11.7a48.17 48.17 0 0 1 68 0 47.81 47.81 0 0 1 0 67.76l-11.74 11.71-57.66 57.48a14.83 14.83 0 0 1-20.91 0L188 112.85l-11.82-11.78a47.9 47.9 0 0 1 0-67.9zM345.72 406.34a8.5 8.5 0 0 0 0-14.65 232.45 232.45 0 0 1-82.41-82.43 8.51 8.51 0 0 0-14.64 0 236.07 236.07 0 0 1-82.42 82.43 8.5 8.5 0 0 0 0 14.64 232.09 232.09 0 0 1 82.43 82.4 8.5 8.5 0 0 0 14.65 0 233.6 233.6 0 0 1 82.37-82.38z" data-original="#f17b89"/><path fill="#4a5058" d="M452.12 212.5h-1.07a48.88 48.88 0 1 0-92.77.12 48.88 48.88 0 1 0 22.64 93.82l-4.69 25.3a13.32 13.32 0 0 0 13.09 15.76h35.51a13.33 13.33 0 0 0 13.1-15.76l-4.7-25.3a48.88 48.88 0 1 0 18.89-94z" data-original="#4a5058"/><path fill="#3f4449" d="M120.22 346.32H89.58a11.5 11.5 0 0 1-11.31-13.59l6.54-35.24a48.08 48.08 0 0 1-59.71-74.6l11.81-11.77 28.07-28a498.89 498.89 0 0 0 63.33 116.09c-1.14-.59-2.26-1.24-3.36-1.94l6.58 35.45a11.49 11.49 0 0 1-11.31 13.6z" data-original="#3f4449"/><path fill="#d36e7f" d="M296.42 445.26a233.6 233.6 0 0 0-33.07 43.45 8.5 8.5 0 0 1-14.65 0 232.23 232.23 0 0 0-82.43-82.41 8.51 8.51 0 0 1 0-14.64 235.74 235.74 0 0 0 27.62-19.19 500.41 500.41 0 0 0 102.53 72.79z" data-original="#d36e7f"/></g></g></svg>