<svg xmlns="http://www.w3.org/2000/svg" version="1.1" xmlns:xlink="http://www.w3.org/1999/xlink" xmlns:svgjs="http://svgjs.com/svgjs" width="512" height="512" x="0" y="0" viewBox="0 0 48 48" style="enable-background:new 0 0 512 512" xml:space="preserve"><g><rect width="37" height="26" x="13.569" y="11.388" fill="#d9e1e2" rx="4" transform="rotate(-82 32.074 24.396)" data-original="#d9e1e2"/><path fill="#c9d0d1" d="M22.311 6a3.963 3.963 0 0 0-1.1 2.22l-4.033 28.718a4 4 0 0 0 3.4 4.517l11.139 1.565c.014-.007.031-.012.045-.02H35a4 4 0 0 0 4-4V10a4 4 0 0 0-2.387-3.655L34.16 6z" data-original="#c9d0d1"/><rect width="26" height="37" x="11" y="4" fill="#d9e1e2" rx="4" data-original="#d9e1e2"/><path fill="#c9d0d1" d="M33.822 38.938 29.786 10.22a4 4 0 0 0-4.517-3.4L11 8.821V37a4 4 0 0 0 4 4h18a3.836 3.836 0 0 0 .571-.058 3.938 3.938 0 0 0 .251-2.004z" data-original="#c9d0d1"/><rect width="26" height="37" x="2.931" y="5.888" fill="#ecf0f1" rx="4" transform="rotate(-8 15.956 24.417)" data-original="#ecf0f1"/><path fill="#d9e1e2" d="M1.651 9.126a3.967 3.967 0 0 0-.612 2.712l4.036 28.718a4 4 0 0 0 4.518 3.405l17.825-2.506a3.97 3.97 0 0 0 2.792-1.8z" data-original="#d9e1e2"/><path fill="#e74c3c" d="m11.138 26 4.017 3.026a2 2 0 0 0 2.8-.393l3.027-4.017a3.515 3.515 0 0 0-.692-4.922 3.514 3.514 0 0 0-4.922.692 3.516 3.516 0 0 0-4.923.691A3.515 3.515 0 0 0 11.138 26z" data-original="#e74c3c"/><path fill="#c0392b" d="m18.829 27.475-.877 1.163a1.992 1.992 0 0 1-2.792.393L11.139 26a3.505 3.505 0 0 1-1.367-2.323A3.484 3.484 0 0 1 11.82 20z" data-original="#c0392b"/><path fill="#e74c3c" d="M8.529 14.825a1 1 0 0 1-.964-.423L6.8 13.287l-.431 1.284a1 1 0 1 1-1.9-.637l1.068-3.179a1.04 1.04 0 0 1 1.771-.249l1.9 2.762a1 1 0 0 1-.683 1.557z" data-original="#e74c3c"/><path fill="#c0392b" d="m6.462 14.278-.1.3a1 1 0 1 1-1.888-.643l.441-1.314z" data-original="#c0392b"/><path fill="#e74c3c" d="M25.515 38.693a1 1 0 0 1-.963-.422l-1.9-2.762a1 1 0 0 1 1.648-1.135l.768 1.115.431-1.284a1 1 0 1 1 1.9.637l-1.068 3.18a1 1 0 0 1-.816.671z" data-original="#e74c3c"/><path fill="#c0392b" d="m26.946 36.16-.626 1.865a1 1 0 0 1-1.763.248l-1.9-2.762a1 1 0 1 1 1.638-1.139l.772 1.113.333-.985z" data-original="#c0392b"/></g></svg>